<svg xmlns="http://www.w3.org/2000/svg" xmlns:xlink="http://www.w3.org/1999/xlink" width="398" zoomAndPan="magnify" viewBox="0 0 298.5 168.75" height="225" preserveAspectRatio="xMidYMid meet" version="1.2"><defs><clipPath id="e223bb6945"><path d="M 125 97 L 132 97 L 132 108.761719 L 125 108.761719 Z M 125 97 "/></clipPath><clipPath id="1895d0b2a4"><path d="M 123 49 L 176 49 L 176 108.761719 L 123 108.761719 Z M 123 49 "/></clipPath><clipPath id="5ad27c5ba6"><path d="M 143 16.664062 L 156 16.664062 L 156 53 L 143 53 Z M 143 16.664062 "/></clipPath><clipPath id="a0985c620d"><path d="M 152 28 L 231.636719 28 L 231.636719 104 L 152 104 Z M 152 28 "/></clipPath><clipPath id="8ef03c84b6"><path d="M 66.164062 22 L 144 22 L 144 104 L 66.164062 104 Z M 66.164062 22 "/></clipPath></defs><g id="ba0ae49ff5"><g style="fill:#004aad;fill-opacity:1;"><g transform="translate(43.654362, 80.568463)"><path style="stroke:none" d="M 21.84375 -45.796875 L 21.0625 -45.796875 C 19.425781 -45.796875 18.1875 -45.65625 17.34375 -45.375 C 16.5 -45.09375 15.878906 -44.472656 15.484375 -43.515625 C 15.085938 -42.554688 14.890625 -41.09375 14.890625 -39.125 L 14.890625 -33.15625 C 14.890625 -28.800781 14.375 -25.535156 13.34375 -23.359375 C 12.3125 -21.179688 10.414062 -19.457031 7.65625 -18.1875 C 10.28125 -17.0625 12.140625 -15.375 13.234375 -13.125 C 14.335938 -10.882812 14.890625 -7.5625 14.890625 -3.15625 L 14.890625 2.734375 C 14.890625 4.703125 15.085938 6.164062 15.484375 7.125 C 15.878906 8.082031 16.5 8.703125 17.34375 8.984375 C 18.1875 9.265625 19.425781 9.40625 21.0625 9.40625 L 21.84375 9.40625 L 21.84375 14.75 L 19.671875 14.75 C 15.960938 14.75 13.273438 13.773438 11.609375 11.828125 C 9.953125 9.890625 9.125 6.835938 9.125 2.671875 L 9.125 -2.390625 C 9.125 -5.429688 8.9375 -7.863281 8.5625 -9.6875 C 8.1875 -11.519531 7.492188 -12.898438 6.484375 -13.828125 C 5.484375 -14.765625 4.046875 -15.28125 2.171875 -15.375 L 1.96875 -15.375 L 1.96875 -21 L 2.171875 -21 C 4.140625 -21.09375 5.625 -21.640625 6.625 -22.640625 C 7.632812 -23.648438 8.300781 -25.054688 8.625 -26.859375 C 8.957031 -28.660156 9.125 -31.0625 9.125 -34.0625 L 9.125 -36.65625 C 9.125 -39.519531 9.3125 -41.945312 9.6875 -43.9375 C 10.0625 -45.925781 10.925781 -47.609375 12.28125 -48.984375 C 13.644531 -50.367188 15.707031 -51.082031 18.46875 -51.125 L 21.84375 -51.125 Z M 21.84375 -45.796875 "/></g></g><g style="fill:#004aad;fill-opacity:1;"><g transform="translate(230.469437, 80.568463)"><path style="stroke:none" d="M 14.390625 -38.984375 L 14.390625 -34 C 14.390625 -30.945312 14.578125 -28.519531 14.953125 -26.71875 C 15.328125 -24.914062 16.019531 -23.535156 17.03125 -22.578125 C 18.039062 -21.617188 19.476562 -21.09375 21.34375 -21 L 21.5625 -21 L 21.5625 -15.375 L 21.34375 -15.375 C 19.382812 -15.28125 17.910156 -14.726562 16.921875 -13.71875 C 15.941406 -12.71875 15.273438 -11.304688 14.921875 -9.484375 C 14.566406 -7.660156 14.390625 -5.25 14.390625 -2.25 L 14.390625 0.34375 C 14.390625 3.25 14.203125 5.695312 13.828125 7.6875 C 13.460938 9.675781 12.585938 11.347656 11.203125 12.703125 C 9.816406 14.066406 7.722656 14.75 4.921875 14.75 L 1.6875 14.75 L 1.6875 9.40625 L 2.453125 9.40625 C 4.097656 9.40625 5.335938 9.253906 6.171875 8.953125 C 7.015625 8.648438 7.632812 8.03125 8.03125 7.09375 C 8.4375 6.15625 8.640625 4.703125 8.640625 2.734375 L 8.640625 -3.234375 C 8.640625 -7.066406 9.0625 -10.109375 9.90625 -12.359375 C 10.9375 -15.078125 12.898438 -17.019531 15.796875 -18.1875 C 13.179688 -19.363281 11.359375 -20.976562 10.328125 -23.03125 C 9.523438 -24.53125 9.039062 -26.132812 8.875 -27.84375 C 8.71875 -29.550781 8.640625 -31.320312 8.640625 -33.15625 L 8.640625 -39.125 C 8.640625 -41.09375 8.4375 -42.539062 8.03125 -43.46875 C 7.632812 -44.40625 7.015625 -45.023438 6.171875 -45.328125 C 5.335938 -45.640625 4.097656 -45.796875 2.453125 -45.796875 L 1.6875 -45.796875 L 1.6875 -51.125 L 3.859375 -51.125 C 7.554688 -51.125 10.234375 -50.140625 11.890625 -48.171875 C 13.554688 -46.210938 14.390625 -43.148438 14.390625 -38.984375 Z M 14.390625 -38.984375 "/></g></g><g clip-rule="nonzero" clip-path="url(#e223bb6945)"><path style=" stroke:none;fill-rule:nonzero;fill:#004aad;fill-opacity:1;" d="M 127.863281 98.984375 C 127.863281 98.042969 128.621094 97.285156 129.5625 97.285156 C 130.503906 97.285156 131.265625 98.042969 131.265625 98.984375 C 131.265625 99.863281 130.597656 100.5625 129.734375 100.652344 L 125.71875 108.75 L 128.449219 100.257812 C 128.105469 99.957031 127.863281 99.5 127.863281 98.984375 Z M 127.863281 98.984375 "/></g><g clip-rule="nonzero" clip-path="url(#1895d0b2a4)"><path style=" stroke:none;fill-rule:nonzero;fill:#004aad;fill-opacity:1;" d="M 134.511719 71.605469 L 126.304688 71.605469 L 126.304688 69.378906 L 135.382812 69.378906 L 143.054688 49.824219 C 143.925781 51.292969 145.253906 52.425781 146.863281 53.042969 L 140.453125 69.378906 L 148.421875 69.378906 L 148.421875 65.007812 L 150.636719 65.007812 L 150.636719 69.378906 L 158.601562 69.378906 L 152.195312 53.042969 C 153.804688 52.433594 155.140625 51.292969 156 49.824219 L 163.671875 69.378906 L 172.753906 69.378906 L 172.753906 71.605469 L 164.554688 71.605469 L 175.261719 98.914062 C 175.738281 100.128906 175.140625 101.492188 173.925781 101.96875 C 173.792969 102.019531 173.652344 102.019531 173.511719 102.050781 L 174.695312 108.761719 L 170.859375 100.632812 L 159.472656 71.605469 L 150.625 71.605469 L 150.625 75.976562 L 148.410156 75.976562 L 148.410156 71.605469 L 139.5625 71.605469 L 129.796875 96.515625 C 129.714844 96.503906 129.632812 96.492188 129.554688 96.492188 C 128.167969 96.492188 127.042969 97.617188 127.042969 99.003906 C 127.042969 99.792969 127.417969 100.492188 127.996094 100.957031 C 127.570312 101.695312 126.800781 102.152344 125.980469 102.152344 C 125.699219 102.152344 125.402344 102.101562 125.121094 101.988281 C 123.90625 101.515625 123.308594 100.148438 123.785156 98.933594 Z M 134.511719 71.605469 "/></g><g clip-rule="nonzero" clip-path="url(#5ad27c5ba6)"><path style=" stroke:none;fill-rule:nonzero;fill:#004aad;fill-opacity:1;" d="M 151.183594 35.472656 L 150.566406 35.472656 L 150.566406 39.875 C 153.511719 40.371094 155.757812 42.910156 155.757812 45.996094 C 155.757812 49.4375 152.976562 52.222656 149.535156 52.222656 C 146.09375 52.222656 143.308594 49.4375 143.308594 45.996094 C 143.308594 42.910156 145.554688 40.371094 148.5 39.875 L 148.5 35.472656 L 147.882812 35.472656 C 147.132812 35.472656 146.527344 34.660156 146.527344 33.667969 L 146.527344 18.203125 C 146.527344 17.355469 147.042969 16.664062 147.691406 16.664062 L 151.394531 16.664062 C 152.035156 16.664062 152.558594 17.355469 152.558594 18.203125 L 152.558594 33.667969 C 152.550781 34.660156 151.941406 35.472656 151.183594 35.472656 Z M 151.183594 35.472656 "/></g><g clip-rule="nonzero" clip-path="url(#a0985c620d)"><path style=" stroke:none;fill-rule:nonzero;fill:#004aad;fill-opacity:1;" d="M 175.261719 103.023438 L 214.421875 103.023438 L 214.421875 69.691406 L 231.335938 69.691406 L 154.117188 28.863281 L 154.117188 33.679688 C 154.117188 35.1875 153.296875 36.433594 152.144531 36.878906 L 152.144531 38.667969 C 155.222656 39.753906 157.335938 42.648438 157.335938 46.007812 C 157.335938 46.738281 157.207031 47.425781 157.023438 48.09375 L 164.757812 67.820312 L 174.339844 67.820312 L 174.339844 73.195312 L 166.863281 73.195312 L 176.730469 98.355469 C 177.40625 100.078125 176.75 102.011719 175.261719 103.023438 Z M 194.988281 82.789062 L 204.746094 82.789062 L 204.746094 92.546875 L 194.988281 92.546875 Z M 194.988281 70.472656 L 204.746094 70.472656 L 204.746094 80.230469 L 194.988281 80.230469 Z M 182.660156 82.789062 L 192.417969 82.789062 L 192.417969 92.546875 L 182.660156 92.546875 Z M 182.660156 70.472656 L 192.417969 70.472656 L 192.417969 80.230469 L 182.660156 80.230469 Z M 182.660156 70.472656 "/></g><g clip-rule="nonzero" clip-path="url(#8ef03c84b6)"><path style=" stroke:none;fill-rule:nonzero;fill:#004aad;fill-opacity:1;" d="M 66.191406 78.417969 L 66.902344 79.824219 L 83.480469 71.433594 L 83.480469 103.800781 L 119.835938 103.800781 L 119.835938 102.234375 L 104.109375 102.234375 L 104.109375 60.988281 L 136.78125 44.4375 L 136.070312 43.03125 L 104.109375 59.214844 L 104.109375 51.28125 L 143.664062 31.25 L 142.953125 29.84375 L 104.109375 49.519531 L 104.109375 22.890625 L 102.539062 22.890625 L 102.539062 50.320312 L 85.058594 59.164062 L 85.058594 22.890625 L 83.480469 22.890625 L 83.480469 59.964844 L 73.074219 65.238281 L 73.785156 66.644531 L 83.480469 61.738281 L 83.480469 69.671875 Z M 85.058594 70.625 L 102.539062 61.777344 L 102.539062 102.234375 L 85.058594 102.234375 Z M 85.058594 60.925781 L 102.527344 52.082031 L 102.527344 60.015625 L 85.050781 68.863281 L 85.050781 60.925781 Z M 85.058594 60.925781 "/></g><g style="fill:#004aad;fill-opacity:1;"><g transform="translate(45.472458, 144.872566)"><path style="stroke:none" d="M 24.171875 0 L 18.859375 0 L 16.78125 -5.453125 L 7.15625 -5.453125 L 5.171875 0 L 0 0 L 9.375 -24.078125 L 14.53125 -24.078125 Z M 8.640625 -9.515625 L 15.234375 -9.515625 L 11.90625 -18.453125 Z M 8.640625 -9.515625 "/></g></g><g style="fill:#004aad;fill-opacity:1;"><g transform="translate(68.173386, 144.872566)"><path style="stroke:none" d="M 18.59375 -23.296875 C 19.601562 -22.867188 20.441406 -22.117188 21.109375 -21.046875 C 21.785156 -19.972656 22.125 -18.726562 22.125 -17.3125 C 22.125 -15.519531 21.566406 -14.015625 20.453125 -12.796875 C 19.347656 -11.578125 17.785156 -10.84375 15.765625 -10.59375 C 16.640625 -9.988281 17.304688 -9.488281 17.765625 -9.09375 C 18.222656 -8.695312 18.726562 -8.144531 19.28125 -7.4375 C 19.832031 -6.738281 20.507812 -5.738281 21.3125 -4.4375 L 24.078125 0 L 18.265625 0 L 14.359375 -5.84375 C 13.484375 -7.144531 12.800781 -8.070312 12.3125 -8.625 C 11.832031 -9.175781 11.320312 -9.550781 10.78125 -9.75 C 10.25 -9.945312 9.488281 -10.046875 8.5 -10.046875 L 7.296875 -10.046875 L 7.296875 0 L 2.453125 0 L 2.453125 -24.078125 L 12.984375 -24.078125 C 14.117188 -24.078125 15.148438 -24.023438 16.078125 -23.921875 C 17.015625 -23.816406 17.851562 -23.609375 18.59375 -23.296875 Z M 15.171875 -14.15625 C 15.753906 -14.332031 16.222656 -14.664062 16.578125 -15.15625 C 16.929688 -15.65625 17.109375 -16.273438 17.109375 -17.015625 C 17.109375 -18.296875 16.5625 -19.179688 15.46875 -19.671875 C 15.175781 -19.804688 14.816406 -19.894531 14.390625 -19.9375 C 13.960938 -19.976562 13.234375 -20 12.203125 -20 L 7.296875 -20 L 7.296875 -13.890625 L 11.5625 -13.890625 C 13.3125 -13.890625 14.515625 -13.976562 15.171875 -14.15625 Z M 15.171875 -14.15625 "/></g></g><g style="fill:#004aad;fill-opacity:1;"><g transform="translate(90.874314, 144.872566)"><path style="stroke:none" d="M 12.8125 -24.484375 C 15.28125 -24.484375 17.363281 -23.878906 19.0625 -22.671875 C 20.769531 -21.472656 21.90625 -19.722656 22.46875 -17.421875 L 17.65625 -16.28125 C 17.363281 -17.53125 16.769531 -18.515625 15.875 -19.234375 C 14.976562 -19.953125 13.878906 -20.3125 12.578125 -20.3125 C 10.691406 -20.3125 9.222656 -19.644531 8.171875 -18.3125 C 7.117188 -16.976562 6.59375 -14.941406 6.59375 -12.203125 C 6.59375 -9.691406 7.019531 -7.65625 7.875 -6.09375 C 8.738281 -4.539062 10.285156 -3.765625 12.515625 -3.765625 C 13.921875 -3.765625 15.0625 -4.210938 15.9375 -5.109375 C 16.8125 -6.003906 17.441406 -7.25 17.828125 -8.84375 L 22.53125 -7.359375 C 21.875 -4.742188 20.679688 -2.796875 18.953125 -1.515625 C 17.234375 -0.234375 15.097656 0.40625 12.546875 0.40625 C 10.367188 0.40625 8.445312 -0.0976562 6.78125 -1.109375 C 5.125 -2.117188 3.84375 -3.539062 2.9375 -5.375 C 2.03125 -7.21875 1.578125 -9.375 1.578125 -11.84375 C 1.578125 -14.03125 1.957031 -16.082031 2.71875 -18 C 3.476562 -19.914062 4.695312 -21.472656 6.375 -22.671875 C 8.0625 -23.878906 10.207031 -24.484375 12.8125 -24.484375 Z M 12.8125 -24.484375 "/></g></g><g style="fill:#004aad;fill-opacity:1;"><g transform="translate(113.575242, 144.872566)"><path style="stroke:none" d="M 7.296875 -14.59375 L 16.8125 -14.59375 L 16.8125 -24.078125 L 21.65625 -24.078125 L 21.65625 0 L 16.8125 0 L 16.8125 -10.53125 L 7.296875 -10.53125 L 7.296875 0 L 2.453125 0 L 2.453125 -24.078125 L 7.296875 -24.078125 Z M 7.296875 -14.59375 "/></g></g><g style="fill:#004aad;fill-opacity:1;"><g transform="translate(136.27617, 144.872566)"><path style="stroke:none" d="M 7.125 0 L 2.28125 0 L 2.28125 -24.078125 L 7.125 -24.078125 Z M 7.125 0 "/></g></g><g style="fill:#004aad;fill-opacity:1;"><g transform="translate(144.044836, 144.872566)"><path style="stroke:none" d="M 19 -20 L 7.328125 -20 L 7.328125 -14.296875 L 17.421875 -14.296875 L 17.421875 -10.21875 L 7.328125 -10.21875 L 7.328125 0 L 2.484375 0 L 2.484375 -24.078125 L 19 -24.078125 Z M 19 -20 "/></g></g><g style="fill:#004aad;fill-opacity:1;"><g transform="translate(163.012703, 144.872566)"><path style="stroke:none" d="M 18.59375 -23.296875 C 19.601562 -22.867188 20.441406 -22.117188 21.109375 -21.046875 C 21.785156 -19.972656 22.125 -18.726562 22.125 -17.3125 C 22.125 -15.519531 21.566406 -14.015625 20.453125 -12.796875 C 19.347656 -11.578125 17.785156 -10.84375 15.765625 -10.59375 C 16.640625 -9.988281 17.304688 -9.488281 17.765625 -9.09375 C 18.222656 -8.695312 18.726562 -8.144531 19.28125 -7.4375 C 19.832031 -6.738281 20.507812 -5.738281 21.3125 -4.4375 L 24.078125 0 L 18.265625 0 L 14.359375 -5.84375 C 13.484375 -7.144531 12.800781 -8.070312 12.3125 -8.625 C 11.832031 -9.175781 11.320312 -9.550781 10.78125 -9.75 C 10.25 -9.945312 9.488281 -10.046875 8.5 -10.046875 L 7.296875 -10.046875 L 7.296875 0 L 2.453125 0 L 2.453125 -24.078125 L 12.984375 -24.078125 C 14.117188 -24.078125 15.148438 -24.023438 16.078125 -23.921875 C 17.015625 -23.816406 17.851562 -23.609375 18.59375 -23.296875 Z M 15.171875 -14.15625 C 15.753906 -14.332031 16.222656 -14.664062 16.578125 -15.15625 C 16.929688 -15.65625 17.109375 -16.273438 17.109375 -17.015625 C 17.109375 -18.296875 16.5625 -19.179688 15.46875 -19.671875 C 15.175781 -19.804688 14.816406 -19.894531 14.390625 -19.9375 C 13.960938 -19.976562 13.234375 -20 12.203125 -20 L 7.296875 -20 L 7.296875 -13.890625 L 11.5625 -13.890625 C 13.3125 -13.890625 14.515625 -13.976562 15.171875 -14.15625 Z M 15.171875 -14.15625 "/></g></g><g style="fill:#004aad;fill-opacity:1;"><g transform="translate(185.713631, 144.872566)"><path style="stroke:none" d="M 13.078125 -24.484375 C 15.609375 -24.484375 17.75 -23.941406 19.5 -22.859375 C 21.25 -21.785156 22.5625 -20.304688 23.4375 -18.421875 C 24.3125 -16.546875 24.75 -14.40625 24.75 -12 C 24.75 -9.445312 24.28125 -7.238281 23.34375 -5.375 C 22.414062 -3.519531 21.078125 -2.09375 19.328125 -1.09375 C 17.585938 -0.09375 15.523438 0.40625 13.140625 0.40625 C 10.660156 0.40625 8.539062 -0.109375 6.78125 -1.140625 C 5.019531 -2.171875 3.691406 -3.609375 2.796875 -5.453125 C 1.898438 -7.304688 1.453125 -9.457031 1.453125 -11.90625 C 1.453125 -14.4375 1.898438 -16.648438 2.796875 -18.546875 C 3.691406 -20.441406 5.003906 -21.90625 6.734375 -22.9375 C 8.472656 -23.96875 10.585938 -24.484375 13.078125 -24.484375 Z M 6.453125 -12.03125 C 6.453125 -10.15625 6.753906 -8.597656 7.359375 -7.359375 C 7.960938 -6.128906 8.769531 -5.222656 9.78125 -4.640625 C 10.789062 -4.054688 11.898438 -3.765625 13.109375 -3.765625 C 14.234375 -3.765625 15.285156 -4.019531 16.265625 -4.53125 C 17.253906 -5.050781 18.078125 -5.929688 18.734375 -7.171875 C 19.398438 -8.421875 19.734375 -10.066406 19.734375 -12.109375 C 19.734375 -14.503906 19.207031 -16.46875 18.15625 -18 C 17.101562 -19.539062 15.410156 -20.3125 13.078125 -20.3125 C 10.765625 -20.3125 9.082031 -19.535156 8.03125 -17.984375 C 6.976562 -16.441406 6.453125 -14.457031 6.453125 -12.03125 Z M 6.453125 -12.03125 "/></g></g><g style="fill:#004aad;fill-opacity:1;"><g transform="translate(210.29792, 144.872566)"><path style="stroke:none" d="M 10.859375 -24.484375 C 13.523438 -24.484375 15.703125 -23.890625 17.390625 -22.703125 C 19.085938 -21.515625 19.984375 -19.675781 20.078125 -17.1875 L 15.203125 -16.984375 C 15.046875 -18.097656 14.632812 -18.957031 13.96875 -19.5625 C 13.3125 -20.175781 12.253906 -20.484375 10.796875 -20.484375 C 9.785156 -20.484375 8.851562 -20.300781 8 -19.9375 C 7.144531 -19.582031 6.71875 -18.96875 6.71875 -18.09375 C 6.71875 -17.351562 7.097656 -16.765625 7.859375 -16.328125 C 8.628906 -15.890625 9.988281 -15.445312 11.9375 -15 C 13.75 -14.570312 15.242188 -14.113281 16.421875 -13.625 C 17.597656 -13.144531 18.613281 -12.375 19.46875 -11.3125 C 20.320312 -10.25 20.75 -8.8125 20.75 -7 C 20.75 -6.070312 20.535156 -5.09375 20.109375 -4.0625 C 19.679688 -3.03125 18.984375 -2.144531 18.015625 -1.40625 C 17.304688 -0.820312 16.363281 -0.375 15.1875 -0.0625 C 14.007812 0.25 12.644531 0.40625 11.09375 0.40625 C 8.09375 0.40625 5.785156 -0.269531 4.171875 -1.625 C 2.554688 -2.988281 1.566406 -5.054688 1.203125 -7.828125 L 5.921875 -8.265625 C 6.429688 -5.203125 8.175781 -3.671875 11.15625 -3.671875 C 12.726562 -3.671875 13.910156 -4 14.703125 -4.65625 C 15.503906 -5.320312 15.90625 -6.101562 15.90625 -7 C 15.90625 -7.644531 15.707031 -8.15625 15.3125 -8.53125 C 14.925781 -8.914062 14.3125 -9.25 13.46875 -9.53125 C 12.625 -9.8125 11.304688 -10.164062 9.515625 -10.59375 C 7.273438 -11.082031 5.472656 -11.910156 4.109375 -13.078125 C 2.753906 -14.242188 2.078125 -15.800781 2.078125 -17.75 C 2.078125 -18.800781 2.347656 -19.835938 2.890625 -20.859375 C 3.429688 -21.878906 4.359375 -22.738281 5.671875 -23.4375 C 6.984375 -24.132812 8.710938 -24.484375 10.859375 -24.484375 Z M 10.859375 -24.484375 "/></g></g><g style="fill:#004aad;fill-opacity:1;"><g transform="translate(231.14911, 144.872566)"><path style="stroke:none" d="M 19.8125 -20 L 12.671875 -20 L 12.671875 0 L 7.828125 0 L 7.828125 -20 L 0.703125 -20 L 0.703125 -24.078125 L 19.8125 -24.078125 Z M 19.8125 -20 "/></g></g></g></svg>