<svg xmlns="http://www.w3.org/2000/svg" xmlns:xlink="http://www.w3.org/1999/xlink" width="1300" zoomAndPan="magnify" viewBox="0 0 974.88 187.499995" height="250" preserveAspectRatio="xMidYMid meet" version="1.0"><defs><g/><clipPath id="d96eccac2d"><path d="M 221 5.75 L 246 5.75 L 246 73 L 221 73 Z M 221 5.75 " clip-rule="nonzero"/></clipPath><clipPath id="9397652cc6"><path d="M 75.699219 17 L 223 17 L 223 171 L 75.699219 171 Z M 75.699219 17 " clip-rule="nonzero"/></clipPath></defs><g fill="#004aad" fill-opacity="1"><g transform="translate(456.663381, 125.263714)"><g><path d="M 59.125 0 L 46.140625 0 L 41.03125 -13.328125 L 17.515625 -13.328125 L 12.671875 0 L 0 0 L 22.9375 -58.875 L 35.53125 -58.875 Z M 21.140625 -23.265625 L 37.25 -23.265625 L 29.109375 -45.140625 Z M 21.140625 -23.265625 "/></g></g></g><g fill="#004aad" fill-opacity="1"><g transform="translate(512.175324, 125.263714)"><g><path d="M 45.46875 -56.984375 C 47.9375 -55.941406 49.992188 -54.101562 51.640625 -51.46875 C 53.285156 -48.84375 54.109375 -45.800781 54.109375 -42.34375 C 54.109375 -37.957031 52.75 -34.269531 50.03125 -31.28125 C 47.320312 -28.300781 43.5 -26.507812 38.5625 -25.90625 C 40.707031 -24.425781 42.335938 -23.207031 43.453125 -22.25 C 44.578125 -21.289062 45.8125 -19.945312 47.15625 -18.21875 C 48.5 -16.488281 50.160156 -14.035156 52.140625 -10.859375 L 58.875 0 L 44.65625 0 L 35.109375 -14.3125 C 32.972656 -17.488281 31.316406 -19.75 30.140625 -21.09375 C 28.960938 -22.4375 27.710938 -23.351562 26.390625 -23.84375 C 25.078125 -24.34375 23.21875 -24.59375 20.8125 -24.59375 L 17.84375 -24.59375 L 17.84375 0 L 6 0 L 6 -58.875 L 31.75 -58.875 C 34.539062 -58.875 37.070312 -58.75 39.34375 -58.5 C 41.625 -58.257812 43.664062 -57.753906 45.46875 -56.984375 Z M 37.09375 -34.625 C 38.507812 -35.0625 39.65625 -35.878906 40.53125 -37.078125 C 41.414062 -38.285156 41.859375 -39.796875 41.859375 -41.609375 C 41.859375 -44.734375 40.515625 -46.898438 37.828125 -48.109375 C 37.117188 -48.429688 36.242188 -48.644531 35.203125 -48.75 C 34.160156 -48.863281 32.375 -48.921875 29.84375 -48.921875 L 17.84375 -48.921875 L 17.84375 -33.96875 L 28.28125 -33.96875 C 32.5625 -33.96875 35.5 -34.1875 37.09375 -34.625 Z M 37.09375 -34.625 "/></g></g></g><g fill="#004aad" fill-opacity="1"><g transform="translate(567.687268, 125.263714)"><g><path d="M 31.328125 -59.859375 C 37.359375 -59.859375 42.457031 -58.390625 46.625 -55.453125 C 50.789062 -52.523438 53.5625 -48.238281 54.9375 -42.59375 L 43.171875 -39.796875 C 42.460938 -42.867188 41.007812 -45.28125 38.8125 -47.03125 C 36.625 -48.789062 33.9375 -49.671875 30.75 -49.671875 C 26.144531 -49.671875 22.554688 -48.039062 19.984375 -44.78125 C 17.410156 -41.519531 16.125 -36.539062 16.125 -29.84375 C 16.125 -23.707031 17.175781 -18.734375 19.28125 -14.921875 C 21.394531 -11.109375 25.164062 -9.203125 30.59375 -9.203125 C 34.039062 -9.203125 36.832031 -10.296875 38.96875 -12.484375 C 41.113281 -14.679688 42.648438 -17.726562 43.578125 -21.625 L 55.09375 -18.015625 C 53.507812 -11.597656 50.601562 -6.828125 46.375 -3.703125 C 42.15625 -0.578125 36.921875 0.984375 30.671875 0.984375 C 25.359375 0.984375 20.671875 -0.25 16.609375 -2.71875 C 12.554688 -5.1875 9.414062 -8.664062 7.1875 -13.15625 C 4.96875 -17.65625 3.859375 -22.921875 3.859375 -28.953125 C 3.859375 -34.316406 4.789062 -39.34375 6.65625 -44.03125 C 8.519531 -48.71875 11.507812 -52.523438 15.625 -55.453125 C 19.738281 -58.390625 24.972656 -59.859375 31.328125 -59.859375 Z M 31.328125 -59.859375 "/></g></g></g><g fill="#004aad" fill-opacity="1"><g transform="translate(623.199217, 125.263714)"><g><path d="M 17.84375 -35.6875 L 41.125 -35.6875 L 41.125 -58.875 L 52.953125 -58.875 L 52.953125 0 L 41.125 0 L 41.125 -25.734375 L 17.84375 -25.734375 L 17.84375 0 L 6 0 L 6 -58.875 L 17.84375 -58.875 Z M 17.84375 -35.6875 "/></g></g></g><g fill="#004aad" fill-opacity="1"><g transform="translate(678.711154, 125.263714)"><g><path d="M 17.4375 0 L 5.59375 0 L 5.59375 -58.875 L 17.4375 -58.875 Z M 17.4375 0 "/></g></g></g><g fill="#004aad" fill-opacity="1"><g transform="translate(697.708357, 125.263714)"><g><path d="M 46.46875 -48.921875 L 17.921875 -48.921875 L 17.921875 -34.953125 L 42.59375 -34.953125 L 42.59375 -25 L 17.921875 -25 L 17.921875 0 L 6.078125 0 L 6.078125 -58.875 L 46.46875 -58.875 Z M 46.46875 -48.921875 "/></g></g></g><g fill="#004aad" fill-opacity="1"><g transform="translate(744.091611, 125.263714)"><g><path d="M 45.46875 -56.984375 C 47.9375 -55.941406 49.992188 -54.101562 51.640625 -51.46875 C 53.285156 -48.84375 54.109375 -45.800781 54.109375 -42.34375 C 54.109375 -37.957031 52.75 -34.269531 50.03125 -31.28125 C 47.320312 -28.300781 43.5 -26.507812 38.5625 -25.90625 C 40.707031 -24.425781 42.335938 -23.207031 43.453125 -22.25 C 44.578125 -21.289062 45.8125 -19.945312 47.15625 -18.21875 C 48.5 -16.488281 50.160156 -14.035156 52.140625 -10.859375 L 58.875 0 L 44.65625 0 L 35.109375 -14.3125 C 32.972656 -17.488281 31.316406 -19.75 30.140625 -21.09375 C 28.960938 -22.4375 27.710938 -23.351562 26.390625 -23.84375 C 25.078125 -24.34375 23.21875 -24.59375 20.8125 -24.59375 L 17.84375 -24.59375 L 17.84375 0 L 6 0 L 6 -58.875 L 31.75 -58.875 C 34.539062 -58.875 37.070312 -58.75 39.34375 -58.5 C 41.625 -58.257812 43.664062 -57.753906 45.46875 -56.984375 Z M 37.09375 -34.625 C 38.507812 -35.0625 39.65625 -35.878906 40.53125 -37.078125 C 41.414062 -38.285156 41.859375 -39.796875 41.859375 -41.609375 C 41.859375 -44.734375 40.515625 -46.898438 37.828125 -48.109375 C 37.117188 -48.429688 36.242188 -48.644531 35.203125 -48.75 C 34.160156 -48.863281 32.375 -48.921875 29.84375 -48.921875 L 17.84375 -48.921875 L 17.84375 -33.96875 L 28.28125 -33.96875 C 32.5625 -33.96875 35.5 -34.1875 37.09375 -34.625 Z M 37.09375 -34.625 "/></g></g></g><g fill="#004aad" fill-opacity="1"><g transform="translate(799.603548, 125.263714)"><g><path d="M 31.984375 -59.859375 C 38.179688 -59.859375 43.414062 -58.539062 47.6875 -55.90625 C 51.96875 -53.28125 55.175781 -49.664062 57.3125 -45.0625 C 59.457031 -40.457031 60.53125 -35.222656 60.53125 -29.359375 C 60.53125 -23.109375 59.390625 -17.707031 57.109375 -13.15625 C 54.835938 -8.601562 51.5625 -5.109375 47.28125 -2.671875 C 43.007812 -0.234375 37.96875 0.984375 32.15625 0.984375 C 26.070312 0.984375 20.875 -0.273438 16.5625 -2.796875 C 12.257812 -5.316406 9.007812 -8.835938 6.8125 -13.359375 C 4.625 -17.878906 3.53125 -23.128906 3.53125 -29.109375 C 3.53125 -35.304688 4.625 -40.71875 6.8125 -45.34375 C 9.007812 -49.976562 12.234375 -53.554688 16.484375 -56.078125 C 20.734375 -58.597656 25.898438 -59.859375 31.984375 -59.859375 Z M 15.78125 -29.4375 C 15.78125 -24.832031 16.519531 -21.019531 18 -18 C 19.488281 -14.988281 21.460938 -12.769531 23.921875 -11.34375 C 26.390625 -9.914062 29.109375 -9.203125 32.078125 -9.203125 C 34.816406 -9.203125 37.390625 -9.832031 39.796875 -11.09375 C 42.210938 -12.363281 44.226562 -14.519531 45.84375 -17.5625 C 47.457031 -20.601562 48.265625 -24.617188 48.265625 -29.609375 C 48.265625 -35.472656 46.976562 -40.28125 44.40625 -44.03125 C 41.832031 -47.789062 37.691406 -49.671875 31.984375 -49.671875 C 26.335938 -49.671875 22.222656 -47.78125 19.640625 -44 C 17.066406 -40.21875 15.78125 -35.363281 15.78125 -29.4375 Z M 15.78125 -29.4375 "/></g></g></g><g fill="#004aad" fill-opacity="1"><g transform="translate(859.720943, 125.263714)"><g><path d="M 26.5625 -59.859375 C 33.082031 -59.859375 38.410156 -58.40625 42.546875 -55.5 C 46.691406 -52.601562 48.875 -48.109375 49.09375 -42.015625 L 37.171875 -41.53125 C 36.785156 -44.269531 35.785156 -46.378906 34.171875 -47.859375 C 32.554688 -49.335938 29.960938 -50.078125 26.390625 -50.078125 C 23.929688 -50.078125 21.660156 -49.640625 19.578125 -48.765625 C 17.492188 -47.890625 16.453125 -46.378906 16.453125 -44.234375 C 16.453125 -42.429688 17.378906 -40.992188 19.234375 -39.921875 C 21.097656 -38.859375 24.414062 -37.773438 29.1875 -36.671875 C 33.632812 -35.628906 37.296875 -34.519531 40.171875 -33.34375 C 43.046875 -32.164062 45.523438 -30.273438 47.609375 -27.671875 C 49.691406 -25.066406 50.734375 -21.546875 50.734375 -17.109375 C 50.734375 -14.859375 50.210938 -12.472656 49.171875 -9.953125 C 48.128906 -7.429688 46.429688 -5.265625 44.078125 -3.453125 C 42.328125 -2.023438 40.007812 -0.925781 37.125 -0.15625 C 34.25 0.601562 30.921875 0.984375 27.140625 0.984375 C 19.796875 0.984375 14.148438 -0.671875 10.203125 -3.984375 C 6.253906 -7.304688 3.835938 -12.363281 2.953125 -19.15625 L 14.46875 -20.234375 C 15.726562 -12.722656 20.003906 -8.96875 27.296875 -8.96875 C 31.140625 -8.96875 34.03125 -9.773438 35.96875 -11.390625 C 37.914062 -13.003906 38.890625 -14.910156 38.890625 -17.109375 C 38.890625 -18.691406 38.410156 -19.945312 37.453125 -20.875 C 36.492188 -21.8125 34.984375 -22.625 32.921875 -23.3125 C 30.867188 -24 27.648438 -24.863281 23.265625 -25.90625 C 17.785156 -27.113281 13.382812 -29.140625 10.0625 -31.984375 C 6.75 -34.835938 5.09375 -38.648438 5.09375 -43.421875 C 5.09375 -45.992188 5.75 -48.523438 7.0625 -51.015625 C 8.382812 -53.515625 10.648438 -55.613281 13.859375 -57.3125 C 17.066406 -59.007812 21.300781 -59.859375 26.5625 -59.859375 Z M 26.5625 -59.859375 "/></g></g></g><g fill="#004aad" fill-opacity="1"><g transform="translate(910.709678, 125.263714)"><g><path d="M 48.4375 -48.921875 L 31 -48.921875 L 31 0 L 19.15625 0 L 19.15625 -48.921875 L 1.734375 -48.921875 L 1.734375 -58.875 L 48.4375 -58.875 Z M 48.4375 -48.921875 "/></g></g></g><g fill="#004aad" fill-opacity="1"><g transform="translate(27.225514, 130.77141)"><g><path d="M 41.28125 -86.546875 L 39.828125 -86.546875 C 36.722656 -86.546875 34.375 -86.28125 32.78125 -85.75 C 31.195312 -85.21875 30.023438 -84.046875 29.265625 -82.234375 C 28.515625 -80.421875 28.140625 -77.65625 28.140625 -73.9375 L 28.140625 -62.65625 C 28.140625 -54.425781 27.164062 -48.253906 25.21875 -44.140625 C 23.269531 -40.023438 19.6875 -36.769531 14.46875 -34.375 C 19.425781 -32.257812 22.941406 -29.078125 25.015625 -24.828125 C 27.097656 -20.578125 28.140625 -14.289062 28.140625 -5.96875 L 28.140625 5.171875 C 28.140625 8.890625 28.515625 11.65625 29.265625 13.46875 C 30.023438 15.289062 31.195312 16.460938 32.78125 16.984375 C 34.375 17.515625 36.722656 17.78125 39.828125 17.78125 L 41.28125 17.78125 L 41.28125 27.875 L 37.171875 27.875 C 30.179688 27.875 25.113281 26.035156 21.96875 22.359375 C 18.820312 18.691406 17.25 12.921875 17.25 5.046875 L 17.25 -4.515625 C 17.25 -10.265625 16.894531 -14.863281 16.1875 -18.3125 C 15.488281 -21.769531 14.1875 -24.382812 12.28125 -26.15625 C 10.375 -27.925781 7.648438 -28.898438 4.109375 -29.078125 L 3.71875 -29.078125 L 3.71875 -39.6875 L 4.109375 -39.6875 C 7.828125 -39.863281 10.640625 -40.90625 12.546875 -42.8125 C 14.453125 -44.71875 15.710938 -47.375 16.328125 -50.78125 C 16.941406 -54.1875 17.25 -58.722656 17.25 -64.390625 L 17.25 -69.296875 C 17.25 -74.691406 17.601562 -79.269531 18.3125 -83.03125 C 19.019531 -86.789062 20.65625 -89.976562 23.21875 -92.59375 C 25.789062 -95.207031 29.6875 -96.554688 34.90625 -96.640625 L 41.28125 -96.640625 Z M 41.28125 -86.546875 "/></g></g></g><g fill="#004aad" fill-opacity="1"><g transform="translate(394.79525, 130.77141)"><g><path d="M 27.21875 -73.671875 L 27.21875 -64.25 C 27.21875 -58.5 27.570312 -53.921875 28.28125 -50.515625 C 28.988281 -47.109375 30.289062 -44.492188 32.1875 -42.671875 C 34.09375 -40.859375 36.816406 -39.863281 40.359375 -39.6875 L 40.75 -39.6875 L 40.75 -29.078125 L 40.359375 -29.078125 C 36.640625 -28.898438 33.847656 -27.859375 31.984375 -25.953125 C 30.128906 -24.046875 28.867188 -21.367188 28.203125 -17.921875 C 27.546875 -14.472656 27.21875 -9.914062 27.21875 -4.25 L 27.21875 0.65625 C 27.21875 6.144531 26.863281 10.769531 26.15625 14.53125 C 25.445312 18.289062 23.785156 21.453125 21.171875 24.015625 C 18.554688 26.585938 14.597656 27.875 9.296875 27.875 L 3.1875 27.875 L 3.1875 17.78125 L 4.640625 17.78125 C 7.742188 17.78125 10.09375 17.492188 11.6875 16.921875 C 13.28125 16.347656 14.453125 15.175781 15.203125 13.40625 C 15.953125 11.632812 16.328125 8.890625 16.328125 5.171875 L 16.328125 -6.109375 C 16.328125 -13.359375 17.125 -19.109375 18.71875 -23.359375 C 20.664062 -28.492188 24.382812 -32.164062 29.875 -34.375 C 24.914062 -36.59375 21.460938 -39.648438 19.515625 -43.546875 C 18.003906 -46.378906 17.09375 -49.410156 16.78125 -52.640625 C 16.476562 -55.867188 16.328125 -59.207031 16.328125 -62.65625 L 16.328125 -73.9375 C 16.328125 -77.65625 15.953125 -80.398438 15.203125 -82.171875 C 14.453125 -83.941406 13.28125 -85.113281 11.6875 -85.6875 C 10.09375 -86.257812 7.742188 -86.546875 4.640625 -86.546875 L 3.1875 -86.546875 L 3.1875 -96.640625 L 7.296875 -96.640625 C 14.285156 -96.640625 19.351562 -94.78125 22.5 -91.0625 C 25.644531 -87.34375 27.21875 -81.546875 27.21875 -73.671875 Z M 27.21875 -73.671875 "/></g></g></g><path fill="#004aad" d="M 192.355469 161.394531 C 192.355469 159.613281 193.792969 158.179688 195.570312 158.179688 C 197.351562 158.179688 198.785156 159.613281 198.785156 161.394531 C 198.785156 163.058594 197.523438 164.378906 195.898438 164.550781 L 188.300781 179.863281 L 193.464844 163.804688 C 192.816406 163.230469 192.355469 162.371094 192.355469 161.394531 Z M 192.355469 161.394531 " fill-opacity="1" fill-rule="nonzero"/><path fill="#004aad" d="M 204.929688 109.628906 L 189.410156 109.628906 L 189.410156 105.417969 L 206.574219 105.417969 L 221.082031 68.441406 C 222.726562 71.21875 225.234375 73.363281 228.277344 74.527344 L 216.164062 105.417969 L 231.226562 105.417969 L 231.226562 97.148438 L 235.414062 97.148438 L 235.414062 105.417969 L 250.476562 105.417969 L 238.363281 74.527344 C 241.40625 73.378906 243.933594 71.21875 245.558594 68.441406 L 260.066406 105.417969 L 277.230469 105.417969 L 277.230469 109.628906 L 261.730469 109.628906 L 281.976562 161.261719 C 282.878906 163.558594 281.746094 166.140625 279.453125 167.039062 C 279.203125 167.136719 278.933594 167.136719 278.667969 167.191406 L 280.90625 179.882812 L 273.652344 164.515625 L 252.121094 109.628906 L 235.398438 109.628906 L 235.398438 117.894531 L 231.207031 117.894531 L 231.207031 109.628906 L 214.480469 109.628906 L 196.011719 156.726562 C 195.859375 156.707031 195.707031 156.6875 195.550781 156.6875 C 192.929688 156.6875 190.804688 158.8125 190.804688 161.433594 C 190.804688 162.925781 191.515625 164.246094 192.605469 165.125 C 191.800781 166.523438 190.347656 167.382812 188.796875 167.382812 C 188.261719 167.382812 187.707031 167.289062 187.167969 167.078125 C 184.875 166.179688 183.746094 163.59375 184.644531 161.300781 Z M 204.929688 109.628906 " fill-opacity="1" fill-rule="nonzero"/><g clip-path="url(#d96eccac2d)"><path fill="#004aad" d="M 236.449219 41.304688 L 235.28125 41.304688 L 235.28125 49.628906 C 240.851562 50.570312 245.097656 55.371094 245.097656 61.210938 C 245.097656 67.714844 239.835938 72.980469 233.328125 72.980469 C 226.824219 72.980469 221.558594 67.714844 221.558594 61.210938 C 221.558594 55.371094 225.808594 50.570312 231.378906 49.628906 L 231.378906 41.304688 L 230.210938 41.304688 C 228.792969 41.304688 227.644531 39.773438 227.644531 37.898438 L 227.644531 8.65625 C 227.644531 7.050781 228.621094 5.75 229.847656 5.75 L 236.851562 5.75 C 238.058594 5.75 239.050781 7.050781 239.050781 8.65625 L 239.050781 37.898438 C 239.03125 39.773438 237.882812 41.304688 236.449219 41.304688 Z M 236.449219 41.304688 " fill-opacity="1" fill-rule="nonzero"/></g><path fill="#004aad" d="M 281.976562 169.03125 L 356.019531 169.03125 L 356.019531 106.011719 L 388 106.011719 L 242 28.808594 L 242 37.917969 C 242 40.769531 240.449219 43.125 238.265625 43.964844 L 238.265625 47.351562 C 244.085938 49.402344 248.085938 54.875 248.085938 61.226562 C 248.085938 62.605469 247.835938 63.90625 247.492188 65.171875 L 262.113281 102.46875 L 280.234375 102.46875 L 280.234375 112.632812 L 266.09375 112.632812 L 284.753906 160.207031 C 286.035156 163.460938 284.789062 167.117188 281.976562 169.03125 Z M 319.277344 130.773438 L 337.726562 130.773438 L 337.726562 149.222656 L 319.277344 149.222656 Z M 319.277344 107.484375 L 337.726562 107.484375 L 337.726562 125.933594 L 319.277344 125.933594 Z M 295.96875 130.773438 L 314.414062 130.773438 L 314.414062 149.222656 L 295.96875 149.222656 Z M 295.96875 107.484375 L 314.414062 107.484375 L 314.414062 125.933594 L 295.96875 125.933594 Z M 295.96875 107.484375 " fill-opacity="1" fill-rule="nonzero"/><g clip-path="url(#9397652cc6)"><path fill="#004aad" d="M 75.75 122.507812 L 77.089844 125.167969 L 108.4375 109.300781 L 108.4375 170.503906 L 177.179688 170.503906 L 177.179688 167.539062 L 147.441406 167.539062 L 147.441406 89.550781 L 209.214844 58.261719 L 207.875 55.601562 L 147.441406 86.203125 L 147.441406 71.199219 L 222.230469 33.324219 L 220.890625 30.664062 L 147.441406 67.867188 L 147.441406 17.519531 L 144.472656 17.519531 L 144.472656 69.378906 L 111.421875 86.105469 L 111.421875 17.519531 L 108.4375 17.519531 L 108.4375 87.617188 L 88.765625 97.589844 L 90.105469 100.25 L 108.4375 90.96875 L 108.4375 105.972656 Z M 111.421875 107.769531 L 144.472656 91.042969 L 144.472656 167.539062 L 111.421875 167.539062 Z M 111.421875 89.4375 L 144.453125 72.710938 L 144.453125 87.714844 L 111.402344 104.441406 L 111.402344 89.4375 Z M 111.421875 89.4375 " fill-opacity="1" fill-rule="nonzero"/></g></svg>